<?xml version="1.0" encoding="utf-8"?>
<svg xmlns="http://www.w3.org/2000/svg" xmlns:xlink="http://www.w3.org/1999/xlink" style="margin: auto; background: rgb(241, 242, 243); display: block; shape-rendering: auto;" width="200px" height="200px" viewBox="0 0 100 100" preserveAspectRatio="xMidYMid">
<g transform="translate(50 50)">
<g>
<animateTransform attributeName="transform" type="rotate" values="0;45" keyTimes="0;1" dur="0.2s" repeatCount="indefinite"></animateTransform><path d="M24.387496796514398 -5.5 L32.3874967965144 -5.5 L32.3874967965144 5.5 L24.387496796514398 5.5 A25 25 0 0 1 21.133651657506547 13.355477064454524 L21.133651657506547 13.355477064454524 L26.790505906998927 19.012331313946902 L19.012331313946905 26.790505906998924 L13.355477064454524 21.133651657506544 A25 25 0 0 1 5.500000000000001 24.387496796514398 L5.500000000000001 24.387496796514398 L5.500000000000002 32.3874967965144 L-5.4999999999999964 32.3874967965144 L-5.499999999999997 24.387496796514398 A25 25 0 0 1 -13.355477064454519 21.13365165750655 L-13.355477064454519 21.13365165750655 L-19.0123313139469 26.79050590699893 L-26.790505906998927 19.012331313946902 L-21.133651657506547 13.35547706445452 A25 25 0 0 1 -24.387496796514398 5.500000000000008 L-24.387496796514398 5.500000000000008 L-32.3874967965144 5.500000000000009 L-32.3874967965144 -5.500000000000001 L-24.387496796514398 -5.500000000000002 A25 25 0 0 1 -21.13365165750655 -13.355477064454515 L-21.13365165750655 -13.355477064454515 L-26.79050590699893 -19.012331313946895 L-19.012331313946905 -26.790505906998927 L-13.355477064454524 -21.133651657506547 A25 25 0 0 1 -5.500000000000009 -24.387496796514398 L-5.500000000000009 -24.387496796514398 L-5.500000000000011 -32.3874967965144 L5.499999999999998 -32.3874967965144 L5.5 -24.387496796514398 A25 25 0 0 1 13.355477064454515 -21.13365165750655 L13.355477064454515 -21.13365165750655 L19.012331313946895 -26.79050590699893 L26.790505906998927 -19.012331313946905 L21.133651657506547 -13.355477064454524 A25 25 0 0 1 24.387496796514398 -5.500000000000011 M0 -42A42 42 0 1 0 0 42 A42 42 0 1 0 0 -42" fill="#13dfc1"></path></g></g>
<!-- [ldio] generated by https://loading.io/ --></svg>